# xmcd
#
# Track frame offsets:
#	150
#	17177
#	33432
#	52437
#	70465
#	84412
#	100847
#	111262
#	130367
#	144462
#	162167
#	177432
#	199720
#
# Disc length: 2792 seconds
#
# Revision: 0
# Processed by: cddbd v1.4PL0 Copyright (c) Steve Scherf et al.
# Submitted via: dBpowerAMP V4.0
#
DISCID=be0ae60d
DTITLE=Bob King - Space To Run
DYEAR=1994
DGENRE=Country
TTITLE0=Space To Run
TTITLE1=The Dance Of Life
TTITLE2=Hey, Look At Me
TTITLE3=Rainbow At The End Of My Ride
TTITLE4=Home Game
TTITLE5=Awesome Dude
TTITLE6=Masters Of Illusion
TTITLE7=Out Of Season
TTITLE8=Not I
TTITLE9=Bottle's Empty
TTITLE10=Workingman's Prayer
TTITLE11=Nothing God Can't Do
TTITLE12=Isabelle
EXTD=Singer/Songwriter from Winnipeg, MB, Canada\nPopular in Western Canada (submitted by John Ediger)
EXTT0=
EXTT1=
EXTT2=
EXTT3=
EXTT4=
EXTT5=
EXTT6=
EXTT7=
EXTT8=
EXTT9=
EXTT10=
EXTT11=
EXTT12=
PLAYORDER=
